<svg width="14" height="15" viewBox="0 0 14 15" fill="none" xmlns="http://www.w3.org/2000/svg">
<g clip-path="url(#clip0_68_1966)">
<path d="M13.8001 7.19687C13.8001 6.618 13.7531 6.19557 13.6514 5.75751H7.04126V8.37025H10.9213C10.8431 9.01956 10.4207 9.9974 9.48192 10.6545L9.46876 10.7419L11.5588 12.361L11.7036 12.3755C13.0334 11.1473 13.8001 9.34027 13.8001 7.19687Z" fill="#4285F4"/>
<path d="M7.04116 14.0808C8.94205 14.0808 10.5379 13.455 11.7035 12.3755L9.48182 10.6545C8.88731 11.0691 8.08938 11.3585 7.04116 11.3585C5.17938 11.3585 3.59921 10.1304 3.03592 8.43286L2.95335 8.43987L0.780129 10.1218L0.751709 10.2008C1.90945 12.5006 4.28755 14.0808 7.04116 14.0808Z" fill="#34A853"/>
<path d="M3.0359 8.43285C2.88727 7.99478 2.80126 7.52539 2.80126 7.0404C2.80126 6.55537 2.88727 6.08602 3.02808 5.64796L3.02415 5.55466L0.823687 3.84576L0.751692 3.88001C0.274529 4.83439 0.000732422 5.90612 0.000732422 7.0404C0.000732422 8.17469 0.274529 9.24636 0.751692 10.2007L3.0359 8.43285Z" fill="#FBBC05"/>
<path d="M7.04116 2.72228C8.36318 2.72228 9.25494 3.29333 9.76344 3.77054L11.7504 1.83051C10.5301 0.696222 8.94205 0 7.04116 0C4.28756 0 1.90945 1.58017 0.751709 3.88002L3.0281 5.64797C3.59921 3.95045 5.17938 2.72228 7.04116 2.72228Z" fill="#EB4335"/>
</g>
<defs>
<clipPath id="clip0_68_1966">
<rect width="13.8072" height="14.1294" fill="white"/>
</clipPath>
</defs>
</svg>
