<svg width="115" height="33" viewBox="0 0 115 33" fill="none" xmlns="http://www.w3.org/2000/svg">
<g clip-path="url(#clip0_22_16)">
<rect y="0.399994" width="32" height="32" rx="8" fill="#155689"/>
<path d="M14.8609 46.0739C13.8146 46.4547 12.6578 45.9152 12.277 44.869L2.37242 17.6564C1.87657 16.2941 2.579 14.7877 3.94134 14.2919C4.76717 13.9913 5.68864 14.1239 6.39619 14.6452L31.2976 32.9912L22.7772 9.58157C22.3964 8.53531 22.9359 7.37844 23.9821 6.99763C25.0284 6.61683 26.1853 7.15628 26.5661 8.20254L36.4706 35.4151C36.9665 36.7774 36.264 38.2838 34.9017 38.7796C34.0759 39.0802 33.1544 38.9476 32.4468 38.4263L7.54541 20.0803L16.0658 43.4899C16.4466 44.5362 15.9072 45.6931 14.8609 46.0739Z" fill="#FAFAFA"/>
</g>
<path d="M40.33 32.4V0.899992H44.11L60.895 26.145V0.899992H64.675V32.4H60.895L44.11 7.15499V32.4H40.33ZM78.5554 32.94C77.0254 32.94 75.6304 32.685 74.3704 32.175C73.1104 31.665 72.1054 30.9 71.3554 29.88C70.6354 28.83 70.2754 27.555 70.2754 26.055C70.2754 24.315 70.7254 22.935 71.6254 21.915C72.5254 20.865 73.7104 20.115 75.1804 19.665C76.6804 19.185 78.2854 18.945 79.9954 18.945H86.0254C86.0254 17.385 85.7554 16.155 85.2154 15.255C84.7054 14.355 84.0304 13.71 83.1904 13.32C82.3504 12.93 81.4204 12.735 80.4004 12.735C78.9304 12.735 77.6554 13.095 76.5754 13.815C75.5254 14.505 74.8654 15.585 74.5954 17.055H70.7254C70.8754 15.435 71.4154 14.07 72.3454 12.96C73.2754 11.85 74.4454 11.01 75.8554 10.44C77.2954 9.83999 78.8104 9.53999 80.4004 9.53999C82.6504 9.53999 84.4654 9.95999 85.8454 10.8C87.2254 11.61 88.2304 12.705 88.8604 14.085C89.4904 15.465 89.8054 16.995 89.8054 18.675V25.515C89.8054 26.625 89.9404 27.465 90.2104 28.035C90.4804 28.605 91.1704 28.95 92.2804 29.07V32.4C91.2904 32.4 90.3904 32.28 89.5804 32.04C88.7704 31.77 88.0804 31.35 87.5104 30.78C86.9704 30.18 86.5804 29.4 86.3404 28.44C85.5904 29.7 84.5554 30.765 83.2354 31.635C81.9454 32.505 80.3854 32.94 78.5554 32.94ZM79.1404 29.745C80.6404 29.745 81.9004 29.37 82.9204 28.62C83.9404 27.84 84.7054 26.85 85.2154 25.65C85.7554 24.45 86.0254 23.205 86.0254 21.915V21.87H80.3104C79.2604 21.87 78.2704 21.99 77.3404 22.23C76.4104 22.44 75.6604 22.845 75.0904 23.445C74.5204 24.015 74.2354 24.825 74.2354 25.875C74.2354 27.225 74.7154 28.215 75.6754 28.845C76.6354 29.445 77.7904 29.745 79.1404 29.745ZM96.8384 32.4V0.899992H100.618V32.4H96.8384ZM109.109 5.12999C108.359 5.12999 107.729 4.88999 107.219 4.40999C106.739 3.89999 106.499 3.26999 106.499 2.51999C106.499 1.79999 106.739 1.19999 107.219 0.719991C107.729 0.239992 108.359 -7.39098e-06 109.109 -7.39098e-06C109.829 -7.39098e-06 110.444 0.239992 110.954 0.719991C111.464 1.19999 111.719 1.79999 111.719 2.51999C111.719 3.26999 111.464 3.89999 110.954 4.40999C110.444 4.88999 109.829 5.12999 109.109 5.12999ZM107.219 32.4V10.08H110.999V32.4H107.219Z" fill="#155689"/>
<defs>
<clipPath id="clip0_22_16">
<rect y="0.399994" width="32" height="32" rx="8" fill="white"/>
</clipPath>
</defs>
</svg>
