<svg width="32" height="32" viewBox="0 0 32 32" fill="none" xmlns="http://www.w3.org/2000/svg">
<g clip-path="url(#clip0_22_2)">
<rect width="32" height="32" rx="8" fill="#155689"/>
<path d="M14.8609 45.6739C13.8146 46.0547 12.6578 45.5152 12.277 44.469L2.37242 17.2564C1.87657 15.8941 2.579 14.3877 3.94134 13.8919C4.76717 13.5913 5.68864 13.7239 6.39619 14.2452L31.2976 32.5912L22.7772 9.18157C22.3964 8.13531 22.9359 6.97845 23.9821 6.59764C25.0284 6.21683 26.1853 6.75629 26.5661 7.80255L36.4706 35.0151C36.9665 36.3774 36.264 37.8838 34.9017 38.3796C34.0759 38.6802 33.1544 38.5476 32.4468 38.0263L7.54541 19.6803L16.0658 43.0899C16.4466 44.1362 15.9072 45.2931 14.8609 45.6739Z" fill="#FAFAFA"/>
</g>
<defs>
<clipPath id="clip0_22_2">
<rect width="32" height="32" rx="8" fill="white"/>
</clipPath>
</defs>
</svg>
